<svg width="21" height="21" viewBox="0 0 21 21" fill="none" xmlns="http://www.w3.org/2000/svg">
<path d="M20.2993 18.5757L15.7051 13.9814C16.8112 12.509 17.4083 10.7166 17.4062 8.875C17.4062 4.1709 13.5791 0.34375 8.875 0.34375C4.1709 0.34375 0.34375 4.1709 0.34375 8.875C0.34375 13.5791 4.1709 17.4062 8.875 17.4062C10.7166 17.4083 12.509 16.8112 13.9814 15.7051L18.5757 20.2993C18.8082 20.5072 19.1116 20.6182 19.4234 20.6094C19.7352 20.6007 20.0318 20.473 20.2524 20.2524C20.473 20.0318 20.6007 19.7352 20.6094 19.4234C20.6182 19.1116 20.5072 18.8082 20.2993 18.5757ZM2.78125 8.875C2.78125 7.66977 3.13864 6.49161 3.80823 5.48949C4.47782 4.48738 5.42953 3.70633 6.54302 3.24511C7.65651 2.78389 8.88176 2.66321 10.0638 2.89834C11.2459 3.13347 12.3317 3.71384 13.1839 4.56607C14.0362 5.41829 14.6165 6.5041 14.8517 7.68617C15.0868 8.86824 14.9661 10.0935 14.5049 11.207C14.0437 12.3205 13.2626 13.2722 12.2605 13.9418C11.2584 14.6114 10.0802 14.9687 8.875 14.9687C7.25943 14.9668 5.71059 14.3242 4.56821 13.1818C3.42583 12.0394 2.78319 10.4906 2.78125 8.875Z" fill="#232232"/>
</svg>
