<svg fill="white" width="26" height="30" viewBox="0 0 26 30" xmlns="http://www.w3.org/2000/svg">
<path d="M22.1517 6.95273C21.9619 6.85462 21.7771 6.74706 21.598 6.63047C21.0773 6.2862 20.5998 5.88056 20.1759 5.42227C19.1154 4.20879 18.7193 2.97773 18.5734 2.11582H18.5793C18.4574 1.40039 18.5078 0.9375 18.5154 0.9375H13.6849V19.616C13.6849 19.8668 13.6849 20.1146 13.6744 20.3596C13.6744 20.39 13.6715 20.4182 13.6697 20.451C13.6697 20.4645 13.6697 20.4785 13.6668 20.4926V20.5031C13.6158 21.1733 13.401 21.8207 13.0412 22.3884C12.6813 22.956 12.1875 23.4266 11.6031 23.7586C10.994 24.1051 10.3052 24.2868 9.60446 24.2859C7.35387 24.2859 5.52985 22.4508 5.52985 20.1844C5.52985 17.918 7.35387 16.0828 9.60446 16.0828C10.0305 16.0824 10.4539 16.1495 10.859 16.2814L10.8648 11.3631C9.63514 11.2042 8.3859 11.302 7.19589 11.6501C6.00588 11.9982 4.90093 12.5892 3.95075 13.3857C3.11817 14.1091 2.41822 14.9723 1.88239 15.9363C1.67848 16.2879 0.909148 17.7006 0.815984 19.9934C0.75739 21.2947 1.14821 22.643 1.33454 23.2002V23.2119C1.45173 23.54 1.90583 24.6598 2.64587 25.6037C3.24261 26.3609 3.94764 27.026 4.73825 27.5777V27.566L4.74997 27.5777C7.08844 29.1668 9.68122 29.0625 9.68122 29.0625C10.13 29.0443 11.6336 29.0625 13.341 28.2533C15.2347 27.3563 16.3129 26.0197 16.3129 26.0197C17.0016 25.2211 17.5493 24.3111 17.9324 23.3285C18.3695 22.1795 18.5154 20.8014 18.5154 20.2506V10.3412C18.574 10.3764 19.3545 10.8926 19.3545 10.8926C19.3545 10.8926 20.4789 11.6133 22.2332 12.0826C23.4918 12.4166 25.1875 12.4869 25.1875 12.4869V7.6916C24.5933 7.75605 23.3869 7.56855 22.1517 6.95273Z" fill="white"/>
</svg>
